<?xml version="1.0" encoding="utf-8"?>
<!-- Generator: Adobe Illustrator 24.2.1, SVG Export Plug-In . SVG Version: 6.00 Build 0)  -->
<svg version="1.1" id="Layer_1" xmlns="http://www.w3.org/2000/svg" xmlns:xlink="http://www.w3.org/1999/xlink" x="0px" y="0px"
	 viewBox="0 0 24 24" style="enable-background:new 0 0 24 24;" xml:space="preserve">
<style type="text/css">
	.st0{fill:#FFFFFF;}
</style>
<g>
	<path class="st0" d="M23.5,24c-0.1,0-0.3-0.1-0.4-0.1L12,12.7L0.9,23.9C0.8,23.9,0.6,24,0.5,24s-0.3-0.1-0.4-0.1
		c-0.2-0.2-0.2-0.5,0-0.7L11.3,12L0.1,0.9C0,0.7,0,0.3,0.1,0.1C0.2,0.1,0.4,0,0.5,0s0.3,0.1,0.4,0.1L12,11.3L23.1,0.1
		C23.2,0.1,23.4,0,23.5,0s0.3,0.1,0.4,0.1c0.2,0.2,0.2,0.5,0,0.7L12.7,12l11.1,11.1c0.2,0.2,0.2,0.5,0,0.7
		C23.8,23.9,23.6,24,23.5,24z"/>
</g>
</svg>
